<?xml version="1.0" encoding="UTF-8"?>
<svg width="243px" height="49px" viewBox="0 0 243 49" version="1.1" xmlns="http://www.w3.org/2000/svg" xmlns:xlink="http://www.w3.org/1999/xlink">
    <!-- Generator: Sketch 49.3 (51167) - http://www.bohemiancoding.com/sketch -->
    <title>iysql</title>
    <desc>Created with Sketch.</desc>
    <defs></defs>
    <g id="Page-1" stroke="none" stroke-width="1" fill="none" fill-rule="evenodd">
        <g id="iysql" fill="#00A4FF" fill-rule="nonzero">
            <g id="Group" transform="translate(98.000000, 6.000000)">
                <polygon id="Shape" points="5.5 40.2 1 40.2 0.6 2.1 5.1 2.1"></polygon>
                <polygon id="Shape" points="41.2 1.7 29.2 21.8 29.4 39.9 25 39.9 24.8 21.8 12.3 2 17.5 1.9 27 16.9 36.1 1.8"></polygon>
                <path d="M63.7,9.9 C62.3,8 61.1,6.8 60.1,6.2 C59.1,5.6 58,5.3 56.7,5.3 C55.4,5.3 54.3,5.7 53.4,6.6 C52.5,7.4 52.1,8.5 52.1,9.8 C52.1,11.1 52.5,12.2 53.4,13.2 C54.2,14.2 56.2,15.7 59.2,17.9 C62.2,20.1 64.4,22.1 65.9,24.1 C67.3,26 68,28.1 68,30.2 C68,33 67,35.5 64.8,37.5 C62.7,39.6 60.1,40.6 57.3,40.7 C52.2,40.8 48.2,38 45.3,32.3 L49.1,30.1 C51.4,34.3 54,36.4 56.8,36.3 C58.6,36.3 60.1,35.7 61.4,34.5 C62.7,33.3 63.3,32 63.3,30.5 C63.3,29 62.7,27.5 61.6,26.2 C60.5,24.8 58.6,23.2 56,21.2 C53.3,19.2 51.5,17.7 50.5,16.7 C49.5,15.7 48.8,14.6 48.3,13.4 C47.8,12.2 47.6,11 47.6,9.9 C47.6,7.4 48.4,5.2 50.2,3.4 C51.9,1.6 54.2,0.7 57,0.7 C59.2,0.7 61,1.2 62.6,2.3 C64.2,3.4 65.8,5 67.3,7.1 L63.7,9.9 Z" id="Shape"></path>
                <path d="M106.6,37.4 C103.6,39.2 100.3,40.2 96.6,40.2 C90.8,40.3 86,38.4 82,34.6 C78.1,30.8 76.1,26.1 76,20.6 C75.9,14.9 77.8,10.1 81.5,6.2 C85.2,2.3 90,0.3 95.8,0.2 C99.4,0.2 102.8,1 105.9,2.7 C109,4.4 111.5,6.8 113.3,9.9 C115.1,13 116,16.3 116.1,20 C116.2,25.7 114.1,30.6 110,34.7 L115.9,42 L110.3,42.1 L106.6,37.4 Z M107.3,31.3 C110.3,28.2 111.7,24.5 111.7,20.1 C111.7,15.7 110.1,12 107,9 C103.9,6 100.3,4.5 96,4.6 C91.8,4.6 88.2,6.2 85.2,9.3 C82.2,12.4 80.8,16.1 80.8,20.6 C80.8,25 82.4,28.7 85.5,31.6 C88.6,34.5 92.2,35.9 96.4,35.9 C99.1,35.9 101.6,35.2 103.9,33.9 L95.2,23.2 L100.6,23.1 L107.3,31.3 Z" id="Shape"></path>
                <polygon id="Shape" points="144.7 38.8 125.8 39 125.4 0.9 129.9 0.9 130.2 34.7 144.6 34.6"></polygon>
            </g>
            <g id="Group" stroke="#FAFBFF" stroke-width="0.75">
                <polygon id="Shape" points="59.1 29.6 42.1 0.1 25.1 29.6 25.3 29.7 25.1 29.9 42.1 48.1 59.1 29.9 58.9 29.7"></polygon>
                <g transform="translate(0.000000, 12.000000)" id="Shape">
                    <polygon points="62.9 0.1 42.1 36.1 63 18.2 83.7 36.1"></polygon>
                    <polygon points="21.3 0.1 0.5 36.1 21.3 18.2 42.1 36.1"></polygon>
                </g>
            </g>
        </g>
    </g>
</svg>